<?xml version="1.0" ?><svg data-name="Layer 1" id="Layer_1" viewBox="0 0 100 100" xmlns="http://www.w3.org/2000/svg"><defs><style>.cls-1{fill:none;stroke:#000;stroke-linecap:round;stroke-linejoin:round;}</style></defs><title/><ellipse class="cls-1" cx="17.41" cy="56.15" rx="8.03" ry="13.51" transform="translate(-25.34 15.79) rotate(-29.42)"/><path class="cls-1" d="M11.48,51.85a12.39,12.39,0,0,1,0-3.49"/><path class="cls-1" d="M20.26,65a16.89,16.89,0,0,1-6.53-6.71,20.07,20.07,0,0,1-1.5-3.34"/><path class="cls-1" d="M17.77,45.09a6.06,6.06,0,0,0-5.62-.18c-3.57,2-3.75,8.44-.42,14.36s8.94,9.09,12.51,7.08c1.76-1,2.7-3.07,2.79-5.63"/><ellipse class="cls-1" cx="55.69" cy="73.2" rx="9.97" ry="14.27" transform="translate(-31.35 43.48) rotate(-33.88)"/><ellipse class="cls-1" cx="56.42" cy="72.71" rx="9.07" ry="12.85" transform="translate(-30.95 43.8) rotate(-33.88)"/><path class="cls-1" d="M23.29,68.36l4.36-2.48a11.84,11.84,0,0,0,3.23-2.66l9.7-11.37"/><path class="cls-1" d="M46.72,62.19l1.33-1.92a8.75,8.75,0,0,1,3.14-2.81l14.94-8.05c4.49-2,10.29,1.24,13,7.24a14.92,14.92,0,0,1,1.33,6.23,4.23,4.23,0,0,1-.6,2.13L72.1,77.82A10.67,10.67,0,0,1,69.22,81l-3.65,2.66"/><path class="cls-1" d="M40.58,51.85A11.67,11.67,0,0,0,40.51,42c-2.3-5.38-7.43-8.34-11.45-6.61-.4.18-9.09,3.26-13,4.74A9.73,9.73,0,0,0,13,42.07L10,44.81"/><path class="cls-1" d="M56.24,42.57l2.48,2.88,6.34-2.77,2.28-1.79L58.6,33a5.91,5.91,0,0,0-6.28-1.21l-9,4.09,8.34,7.81.75-.66"/><ellipse class="cls-1" cx="53.84" cy="38.38" rx="4.02" ry="5.08" transform="translate(-3.24 5) rotate(-5.17)"/><ellipse class="cls-1" cx="53.84" cy="38.38" rx="4.02" ry="5.08" transform="translate(-3.24 5) rotate(-5.17)"/><path class="cls-1" d="M55.49,33.84l9.57,8.84,1.06-.38a3.55,3.55,0,0,1,3.77.88l7.71,8a12.82,12.82,0,0,1,2.29,14.51h0"/><line class="cls-1" x1="43.89" x2="53.38" y1="36.43" y2="33.32"/><path class="cls-1" d="M52.15,33.72a0,0,0,0,0,0,0h0"/><path class="cls-1" d="M52.92,31.57a4.16,4.16,0,0,1,2.66-2.13c2.7-.63,6.36,2.58,7.24,6.33a5.36,5.36,0,0,1,.1,1.12"/><path class="cls-1" d="M56.49,42.86a3.29,3.29,0,0,1-.39-.17"/><line class="cls-1" x1="59.7" x2="59.69" y1="26.55" y2="26.56"/><path class="cls-1" d="M62.2,25a3.42,3.42,0,0,1,.72-.16,6.21,6.21,0,0,1,6.62,5h0A6.79,6.79,0,0,1,69.69,31c.07,4.08-1.55,6.14-4.67,7.79"/><line class="cls-1" x1="54.32" x2="62.23" y1="30" y2="24.93"/><path class="cls-1" d="M62.92,24.79l1.43-.23a5.54,5.54,0,0,1,4.56,1.37L77,33.25,74.24,34.5l-4.7-4.72"/><line class="cls-1" x1="67.92" x2="68.67" y1="37.13" y2="38.26"/><line class="cls-1" x1="74.24" x2="66.31" y1="34.5" y2="39.95"/><path class="cls-1" d="M59.7,26.55,57.5,26,57,25.65c.49-.94,1.94-1.26,3-1.44l5.94-1a18.08,18.08,0,0,0,4.66-1.48l.22-.11a3.56,3.56,0,0,1,3.46.23l.34.23A5.25,5.25,0,0,1,76.32,24,5.35,5.35,0,0,1,77,26.55l4.5,2.76a30.76,30.76,0,0,1,7.08,6,8.51,8.51,0,0,1,2.09,5"/><path class="cls-1" d="M77,33.25h4.11a9.29,9.29,0,0,1,5.67,2.53l.48.48A28,28,0,0,1,90.39,40c.08.12.16.23.25.34a13.09,13.09,0,0,1,2.63,7.26l.08,1.85a5.77,5.77,0,0,1-1.17,3.78L84.37,63.46a6.32,6.32,0,0,1-2.69,2l-2.84,1.12"/><path class="cls-1" d="M58.72,45.45h0A7.48,7.48,0,0,0,58,51.14l.55,1.94"/><path class="cls-1" d="M28.79,35.5l.14-.21A4,4,0,0,1,30.25,34l4-2.37,12.68-7.52a7.38,7.38,0,0,1,7.59,0L57,25.65"/><path class="cls-1" d="M57.2,43.68l-7.08,5.55a5.45,5.45,0,0,1-2.18,1.05l-4,.93a8.17,8.17,0,0,0-1.66.58l-2.7,1.29"/><path class="cls-1" d="M34.25,31.65a4.37,4.37,0,0,1,4.63.09L49.8,42a4.64,4.64,0,0,1,1.39,4.17l-.45,2.62"/><path class="cls-1" d="M80.59,28.77l1.1-.92a5.22,5.22,0,0,1,4.8-1l.23.06a9.14,9.14,0,0,1,6.64,8.79v.72a4,4,0,0,1-.77,2.36L91,40.89"/><path class="cls-1" d="M59.92,24.21l5-3.92a3.49,3.49,0,0,1,2.71-.72l.9.14a2.85,2.85,0,0,1,2.26,1.88h0"/><path class="cls-1" d="M48.07,69.61a11.91,11.91,0,0,1,.45-3.88"/><path class="cls-1" d="M57.83,82.08a13.24,13.24,0,0,1-7.68-5.88,13.75,13.75,0,0,1-1.52-3.35"/></svg>