<?xml version="1.0" encoding="iso-8859-1"?>
<!-- Generator: Adobe Illustrator 20.0.0, SVG Export Plug-In . SVG Version: 6.00 Build 0)  -->
<svg version="1.1" id="Layer_1_1_" xmlns="http://www.w3.org/2000/svg" xmlns:xlink="http://www.w3.org/1999/xlink" x="0px" y="0px"
	 viewBox="0 0 64 64" style="enable-background:new 0 0 64 64;" xml:space="preserve">
<path d="M4,56v3c0,0.552-0.449,1-1,1H2v2h1c1.654,0,3-1.346,3-3v-2.261l9.401-2.893C16.502,55.161,18.154,56,20,56
	c3.309,0,6-2.691,6-6c0-2.215-1.21-4.149-3-5.188V36c0.431,0,0.812-0.275,0.949-0.684L25.721,30H47c0.552,0,1-0.447,1-1v-1h3
	c0.552,0,1-0.447,1-1v-2h3c0.552,0,1-0.447,1-1v-8c0-0.553-0.448-1-1-1h-3v-1.586l9.707-9.707c0.286-0.286,0.372-0.716,0.217-1.09
	S61.404,2,61,2H7C4.243,2,2,4.243,2,7v18c0,2.757,2.243,5,5,5h7.279l1.772,5.316C16.188,35.725,16.569,36,17,36v8.812
	c-0.548,0.318-1.039,0.72-1.46,1.188H6v-2c0-1.654-1.346-3-3-3H2v2h1c0.551,0,1,0.448,1,1v3V56z M20,54
	c-1.415,0-2.654-0.743-3.365-1.856c-0.001-0.001,0-0.002-0.001-0.003c-0.087-0.136-0.16-0.278-0.229-0.421
	c-0.014-0.028-0.032-0.054-0.045-0.082c-0.045-0.098-0.076-0.2-0.113-0.301c-0.045-0.127-0.088-0.255-0.121-0.388
	c-0.021-0.084-0.04-0.169-0.056-0.255C16.03,50.468,16,50.238,16,50c0-0.244,0.03-0.481,0.072-0.713
	c0.021-0.113,0.053-0.224,0.085-0.335c0.028-0.102,0.058-0.204,0.094-0.302c0.056-0.15,0.118-0.299,0.193-0.443
	c0.019-0.037,0.039-0.072,0.059-0.108c0.095-0.17,0.198-0.338,0.318-0.497c0.002-0.003,0.003-0.006,0.005-0.008
	c0.411-0.542,0.948-0.981,1.579-1.257c1.023-0.448,2.17-0.448,3.193,0C23.009,46.955,24,48.362,24,50C24,52.206,22.206,54,20,54z
	 M50,26h-2V14h2v2v8V26z M54,17v6h-2v-6H54z M7,4h51.586l-8,8H47H25c-0.265,0-0.52,0.105-0.707,0.293L16.586,20H4v-2h13v-2H4v-2h13
	v-2H4V7C4,5.346,5.346,4,7,4z M4,25v-3h13c0.265,0,0.52-0.105,0.707-0.293L25.414,14H46v13v1H25H15H7C5.346,28,4,26.654,4,25z
	 M16.387,30h7.226l-1.333,4H22h-4h-0.279L16.387,30z M19,44.085V36h2v8.085c-0.026-0.004-0.053-0.003-0.079-0.007
	C20.62,44.032,20.314,44,20,44s-0.62,0.032-0.921,0.078C19.053,44.082,19.026,44.081,19,44.085z M14.35,48
	c-0.108,0.304-0.193,0.617-0.251,0.941c-0.007,0.037-0.011,0.074-0.017,0.11C14.033,49.361,14,49.677,14,50
	c0,0.34,0.035,0.672,0.09,0.997c0.005,0.028,0.008,0.056,0.013,0.084c0.062,0.337,0.153,0.663,0.269,0.979
	c0.001,0.003,0.002,0.007,0.003,0.01L6,54.646V48H14.35z"/>
<rect x="6" y="7" width="2" height="2"/>
<rect x="10" y="7" width="2" height="2"/>
<rect x="14" y="7" width="2" height="2"/>
<rect x="18" y="7" width="2" height="2"/>
<rect x="22" y="7" width="2" height="2"/>
<rect x="26" y="7" width="2" height="2"/>
<rect x="30" y="7" width="2" height="2"/>
<rect x="45" y="34" width="2" height="2"/>
<rect x="45" y="38" width="2" height="2"/>
<rect x="49" y="38" width="2" height="2"/>
<rect x="41" y="38" width="2" height="2"/>
<rect x="45" y="42" width="2" height="2"/>
<rect x="49" y="42" width="2" height="2"/>
<rect x="53" y="42" width="2" height="2"/>
<rect x="41" y="42" width="2" height="2"/>
<rect x="37" y="42" width="2" height="2"/>
</svg>
