<?xml version="1.0" standalone="no"?>
<!DOCTYPE svg PUBLIC "-//W3C//DTD SVG 20010904//EN"
 "http://www.w3.org/TR/2001/REC-SVG-20010904/DTD/svg10.dtd">
<svg version="1.0" xmlns="http://www.w3.org/2000/svg"
 width="512.000000pt" height="512.000000pt" viewBox="0 0 512.000000 512.000000"
 preserveAspectRatio="xMidYMid meet">

<g transform="translate(0.000000,512.000000) scale(0.100000,-0.100000)"
fill="lightgreen" stroke="none">
<path d="M2440 5114 c-210 -39 -266 -56 -400 -126 -291 -150 -506 -435 -575
-763 -61 -289 1 -604 168 -850 59 -86 196 -225 280 -283 130 -89 316 -169 440
-187 l47 -7 0 -969 0 -969 160 0 160 0 0 969 0 969 47 7 c124 18 310 98 440
187 84 58 221 197 280 283 133 197 201 436 189 670 -12 251 -94 468 -249 660
-160 197 -389 336 -642 390 -77 17 -294 28 -345 19z m-68 -346 c199 -92 248
-358 93 -513 -122 -121 -328 -121 -450 0 -78 78 -111 204 -82 306 57 194 259
289 439 207z"/>
<path d="M1945 1874 c-380 -58 -701 -168 -938 -320 -103 -66 -244 -212 -289
-299 -100 -194 -102 -385 -5 -578 74 -148 256 -308 467 -409 818 -392 2251
-346 2925 93 44 29 121 93 171 143 71 72 99 109 131 173 124 247 84 511 -108
717 -111 118 -245 209 -427 289 -202 89 -507 168 -779 202 l-53 7 0 -161 c0
-158 0 -161 23 -166 12 -2 76 -14 142 -25 503 -87 852 -270 936 -490 23 -61
24 -100 4 -167 -75 -253 -527 -464 -1155 -540 -202 -24 -658 -24 -860 0 -628
76 -1080 287 -1155 540 -20 67 -19 106 4 167 84 220 433 403 936 490 66 11
130 23 143 25 22 5 22 8 22 165 0 185 17 168 -135 144z"/>
</g>
</svg>
