<?xml version="1.0" standalone="no"?>
<!DOCTYPE svg PUBLIC "-//W3C//DTD SVG 20010904//EN"
 "http://www.w3.org/TR/2001/REC-SVG-20010904/DTD/svg10.dtd">
<svg version="1.0" xmlns="http://www.w3.org/2000/svg"
 width="512.000000pt" height="512.000000pt" viewBox="0 0 512.000000 512.000000"
 preserveAspectRatio="xMidYMid meet">

<g transform="translate(0.000000,512.000000) scale(0.100000,-0.100000)"
fill="#ffffff" stroke="none">
<path d="M480 4379 c-14 -6 -36 -20 -48 -32 -80 -74 -67 -191 27 -254 l34 -23
2067 0 2067 0 34 23 c104 70 106 197 6 271 l-28 21 -2067 2 c-1360 1 -2076 -2
-2092 -8z"/>
<path d="M480 2709 c-14 -6 -36 -20 -48 -32 -78 -72 -68 -185 21 -251 l28 -21
1574 0 1574 0 27 21 c53 39 69 71 69 134 0 63 -16 95 -69 134 -27 21 -29 21
-1589 23 -1024 1 -1571 -2 -1587 -8z"/>
<path d="M459 1028 c-75 -43 -103 -150 -56 -218 12 -18 35 -43 50 -54 l28 -21
2079 0 2079 0 28 21 c100 74 98 201 -6 271 l-34 23 -2066 0 -2066 0 -36 -22z"/>
</g>
</svg>
